<svg id="Layer_1" data-name="Layer 1" xmlns="http://www.w3.org/2000/svg" viewBox="0 0 1080 1080"><defs><style>.cls-1{fill:#4d4d4d;}</style></defs><path class="cls-1" d="M445.12,571l-20.7-55.67H434l18.38,50.42h-4.51L467,515.37h8.51l18.7,50.42h-4.41l18.8-50.42h9L496.8,571h-9.67l-17.54-46h2.94l-17.75,46Z"/><path class="cls-1" d="M546.8,571.67A32.46,32.46,0,0,1,531.09,568a26.64,26.64,0,0,1-10.5-10.09,28.65,28.65,0,0,1-3.73-14.71,29.29,29.29,0,0,1,3.63-14.7,26.11,26.11,0,0,1,10-10,28.41,28.41,0,0,1,14.34-3.63,28.1,28.1,0,0,1,14.29,3.57,25.36,25.36,0,0,1,9.72,10,31.13,31.13,0,0,1,3.52,15.08q0,.63-.06,1.47c0,.56-.09,1.09-.15,1.58H524.74v-7.25h42.12l-4.09,2.52a18.73,18.73,0,0,0-2.21-9.56,16.93,16.93,0,0,0-6.35-6.57,19.82,19.82,0,0,0-18.76,0,16.71,16.71,0,0,0-6.4,6.62,20,20,0,0,0-2.31,9.72v1.68a19.14,19.14,0,0,0,2.57,9.93,17.66,17.66,0,0,0,7.19,6.77,22.61,22.61,0,0,0,10.61,2.42,23.22,23.22,0,0,0,9-1.68,19.71,19.71,0,0,0,7.09-5l5.56,6.52a24.35,24.35,0,0,1-9.4,6.72A32.7,32.7,0,0,1,546.8,571.67Z"/><path class="cls-1" d="M582.1,571V493.1h10.08V571Z"/><path class="cls-1" d="M607.2,571V493.1h10.08V571Z"/><path class="cls-1" d="M656.57,571.67A31,31,0,0,1,641.39,568a27.11,27.11,0,0,1-10.45-10.09,30.49,30.49,0,0,1,0-29.41,26.61,26.61,0,0,1,10.45-10,31.26,31.26,0,0,1,15.18-3.63,29.53,29.53,0,0,1,13.5,3,21.16,21.16,0,0,1,9.19,8.87l-7.67,4.94a17.12,17.12,0,0,0-6.67-6,18.75,18.75,0,0,0-8.45-1.94,19.6,19.6,0,0,0-9.77,2.41,17.79,17.79,0,0,0-6.83,6.78,20.29,20.29,0,0,0-2.52,10.34,20.59,20.59,0,0,0,2.52,10.4,17.65,17.65,0,0,0,6.83,6.83,19.61,19.61,0,0,0,9.77,2.42,18.76,18.76,0,0,0,8.45-2,17,17,0,0,0,6.67-6l7.67,4.84a22,22,0,0,1-9.19,8.87A28.7,28.7,0,0,1,656.57,571.67Z"/><path class="cls-1" d="M711.09,571.67A29.87,29.87,0,0,1,696.23,568a27.17,27.17,0,0,1-10.35-10.14,28.48,28.48,0,0,1-3.78-14.66,28.12,28.12,0,0,1,3.78-14.65,27.45,27.45,0,0,1,10.29-10,29.87,29.87,0,0,1,14.92-3.68A30.24,30.24,0,0,1,726,518.47a26.53,26.53,0,0,1,10.29,10,30.85,30.85,0,0,1,0,29.41A27,27,0,0,1,726,568,29.94,29.94,0,0,1,711.09,571.67Zm0-8.82a19.11,19.11,0,0,0,9.61-2.42,17,17,0,0,0,6.67-6.88,21.38,21.38,0,0,0,2.42-10.35,21,21,0,0,0-2.42-10.34,17.19,17.19,0,0,0-6.67-6.78,19.1,19.1,0,0,0-9.61-2.41,18.84,18.84,0,0,0-9.56,2.41,18.08,18.08,0,0,0-6.72,6.78,20.29,20.29,0,0,0-2.52,10.34,20.66,20.66,0,0,0,2.52,10.35,17.86,17.86,0,0,0,6.72,6.88A18.84,18.84,0,0,0,711.09,562.85Z"/><path class="cls-1" d="M754.79,504.65a6.7,6.7,0,0,1-4.88-1.89,6.19,6.19,0,0,1-1.95-4.62,6.32,6.32,0,0,1,1.95-4.73,6.7,6.7,0,0,1,4.88-1.89,6.79,6.79,0,0,1,4.88,1.84,6,6,0,0,1,2,4.57,6.55,6.55,0,0,1-6.83,6.72Zm-5,66.39V515.37h10.08V571Z"/><path class="cls-1" d="M804.58,514.84a26.37,26.37,0,0,1,12,2.63,18.82,18.82,0,0,1,8.14,8q2.94,5.35,2.94,13.55v32H817.61V540.16q0-8.08-3.94-12.19t-11.08-4.09a19.78,19.78,0,0,0-9.35,2.1,14.36,14.36,0,0,0-6.15,6.19,21.83,21.83,0,0,0-2.15,10.19V571H774.85V515.37h9.67v15l-1.58-4a19.31,19.31,0,0,1,8.41-8.51A27.55,27.55,0,0,1,804.58,514.84Z"/><path class="cls-1" d="M224.66,528.75c-5-7.09-9.56-13.43-14.29-19.7a138.22,138.22,0,0,0,23.77-19.12c6.66,6.67,12.42,13.11,18.26,19.8A205,205,0,0,1,224.66,528.75ZM300,510c-6.84-6.85-13.25-13.43-19.92-20.1-6.68,6.67-13.64,13.27-21.55,19.87,6,6.73,12,13.76,18.65,21.48C285.61,523.92,293,516.85,300,510Zm-26.61,24.5c-6.6-7.9-12.57-15-18.42-21.82a217.55,217.55,0,0,1-28.08,19.22c5.11,7.31,10.68,15.47,17,25A318.62,318.62,0,0,0,273.39,534.53Zm74.18-24.73c-7.92-6.6-14.88-13.2-21.55-19.87-6.67,6.67-13.09,13.25-19.93,20.1,7,6.82,14.4,13.89,22.83,21.25C335.56,523.56,341.61,516.53,347.57,509.8Zm48.15-.75A137.74,137.74,0,0,1,372,489.93c-6.66,6.67-12.43,13.11-18.27,19.8a205.16,205.16,0,0,0,27.75,19C386.44,521.66,391,515.32,395.72,509.05Zm-16.51,22.88a217,217,0,0,1-28.09-19.22c-5.84,6.78-11.81,13.92-18.42,21.82a318.62,318.62,0,0,0,29.5,22.38C368.52,547.4,374.1,539.24,379.21,531.93ZM306.9,564.87c8.87,9.59,18.89,19.92,30.09,30.35,8.47-12.81,15.82-24.13,22.37-34a342.38,342.38,0,0,1-29.61-23.14C323,546.17,315.47,555.1,306.9,564.87Zm-60.17-3.67c6.56,9.89,13.91,21.21,22.38,34,11.19-10.43,21.21-20.76,30.09-30.35-8.57-9.77-16.06-18.7-22.85-26.81A342.6,342.6,0,0,1,246.73,561.2Zm33.42-26.48c6.83,7.91,14.33,16.55,22.9,26,8.57-9.41,16.07-18,22.89-26-8.46-7.54-15.93-14.75-22.89-21.66C296.08,520,288.62,527.18,280.15,534.72Z"/></svg>